<?xml version="1.0" standalone="no"?><!DOCTYPE svg PUBLIC "-//W3C//DTD SVG 1.1//EN" "http://www.w3.org/Graphics/SVG/1.1/DTD/svg11.dtd"><svg t="1622448962820" class="icon" viewBox="0 0 1024 1024" version="1.1" xmlns="http://www.w3.org/2000/svg" p-id="4319" xmlns:xlink="http://www.w3.org/1999/xlink" width="64" height="64"><defs><style type="text/css"></style></defs><path d="M322.56 363.52c-56.32 0-102.4-46.08-102.4-102.4s46.08-102.4 102.4-102.4 102.4 46.08 102.4 102.4-46.08 102.4-102.4 102.4z m0-163.84c-33.792 0-61.44 27.648-61.44 61.44s27.648 61.44 61.44 61.44 61.44-27.648 61.44-61.44-27.648-61.44-61.44-61.44zM349.184 597.504c-98.304 0-177.152-98.816-180.736-103.936l32.256-25.088L184.32 481.28l15.872-12.8c1.024 1.024 85.504 107.008 173.568 84.992 40.96-10.24 93.696-64.512 144.896-117.248C588.8 364.032 654.848 295.936 718.848 302.08c120.32 11.776 136.704 117.76 146.432 181.248l-40.448 6.144c-11.776-75.264-27.648-138.24-109.568-146.432-44.544-4.608-109.568 62.464-166.912 121.856-57.344 59.392-111.616 115.712-164.352 128.512-11.776 3.072-23.552 4.096-34.816 4.096z" p-id="4320" fill="#2A86C1"></path><path d="M184.32 481.28m-20.48 0a20.48 20.48 0 1 0 40.96 0 20.48 20.48 0 1 0-40.96 0Z" p-id="4321" fill="#2A86C1"></path><path d="M844.8 486.4m-20.48 0a20.48 20.48 0 1 0 40.96 0 20.48 20.48 0 1 0-40.96 0Z" p-id="4322" fill="#2A86C1"></path><path d="M537.6 737.28H158.72c-11.264 0-20.48-9.216-20.48-20.48s9.216-20.48 20.48-20.48h378.88c11.264 0 20.48 9.216 20.48 20.48s-9.216 20.48-20.48 20.48zM865.28 839.68H158.72c-11.264 0-20.48-9.216-20.48-20.48s9.216-20.48 20.48-20.48h706.56c11.264 0 20.48 9.216 20.48 20.48s-9.216 20.48-20.48 20.48z" p-id="4323" fill="#2A86C1"></path></svg>