<?xml version="1.0" standalone="no"?><!DOCTYPE svg PUBLIC "-//W3C//DTD SVG 1.1//EN" "http://www.w3.org/Graphics/SVG/1.1/DTD/svg11.dtd"><svg t="1622450966794" class="icon" viewBox="0 0 1024 1024" version="1.1" xmlns="http://www.w3.org/2000/svg" p-id="2396" xmlns:xlink="http://www.w3.org/1999/xlink" width="64" height="64"><defs><style type="text/css"></style></defs><path d="M484.816366 715.253775c96.76376 0 175.571359-78.807599 175.571359-175.571359L660.387725 382.067219c0.498782-1.496347 0.997565-2.992694 0.997565-4.48904s-0.498782-2.992694-0.997565-4.48904L660.387725 237.919143c0-96.76376-78.807599-175.571359-175.571359-175.571359S309.245007 141.155382 309.245007 237.919143l0 301.763273C309.245007 636.446176 388.052606 715.253775 484.816366 715.253775zM339.171943 485.315149l68.831953 0c8.479299 0 14.963468-6.48417 14.963468-14.963468s-6.48417-14.963468-14.963468-14.963468L339.171943 455.388212 339.171943 392.042864l71.325865 0c8.479299 0 14.963468-6.48417 14.963468-14.963468s-6.48417-14.963468-14.963468-14.963468L339.171943 362.115928 339.171943 298.77058l68.831953 0c8.479299 0 14.963468-6.48417 14.963468-14.963468s-6.48417-14.963468-14.963468-14.963468L339.171943 268.843643l0-30.924501c0-80.303945 65.340477-145.644423 145.644423-145.644423s145.644423 65.340477 145.644423 145.644423l0 30.924501L568.611788 268.843643c-8.479299 0-14.963468 6.48417-14.963468 14.963468s6.48417 14.963468 14.963468 14.963468l61.849001 0 0 63.345348L568.611788 362.115928c-8.479299 0-14.963468 6.48417-14.963468 14.963468s6.48417 14.963468 14.963468 14.963468l61.849001 0 0 63.345348L568.611788 455.388212c-8.479299 0-14.963468 6.48417-14.963468 14.963468s6.48417 14.963468 14.963468 14.963468l61.849001 0 0 54.367267c0 80.303945-65.340477 145.644423-145.644423 145.644423S339.171943 619.986361 339.171943 539.682416L339.171943 485.315149z" p-id="2397" fill="#2A86C1"></path><path d="M499.779834 782.589381c121.702874-7.980516 217.967852-109.233317 217.967852-232.432538 0-8.479299-6.48417-14.963468-14.963468-14.963468s-14.963468 6.48417-14.963468 14.963468c0 111.727228-91.277155 203.004384-203.004384 203.004384s-203.004384-91.277155-203.004384-203.004384c0-8.479299-6.48417-14.963468-14.963468-14.963468s-14.963468 6.48417-14.963468 14.963468c0 123.199221 96.264978 224.452021 217.967852 232.432538l0 92.773502c0 0.498782 0 1.496347 0 1.995129L401.020945 877.358013c-8.479299 0-14.963468 6.48417-14.963468 14.963468s6.48417 14.963468 14.963468 14.963468L568.611788 907.284949c8.479299 0 14.963468-6.48417 14.963468-14.963468s-6.48417-14.963468-14.963468-14.963468l-68.831953 0c0-0.498782 0-1.496347 0-1.995129L499.779834 782.589381z" p-id="2398" fill="#2A86C1"></path></svg>