<?xml version="1.0" standalone="no"?><!DOCTYPE svg PUBLIC "-//W3C//DTD SVG 1.1//EN" "http://www.w3.org/Graphics/SVG/1.1/DTD/svg11.dtd"><svg t="1622450379098" class="icon" viewBox="0 0 1024 1024" version="1.1" xmlns="http://www.w3.org/2000/svg" p-id="8767" xmlns:xlink="http://www.w3.org/1999/xlink" width="64" height="64"><defs><style type="text/css"></style></defs><path d="M771.1 63.9H255c-34.7 0-63 28.7-63 64v643.7c0 35.3 28.2 64 63 64h287.4v23c0 55.7 44.6 101 99.4 101 54.8 0 99.4-45.3 99.4-101v-23H775c31.5 0 59.1-29.9 59.1-64V127.9c0-35.3-28.3-64-63-64z m15.4 707.6c0 9-7.6 15.7-11.5 15.7h-43.3c-13.1 0-23.8 10.8-23.8 24.2 0 3 0.6 5.8 1.6 8.4v38.8c0 37.9-30.4 68.8-67.7 68.8-37.3 0-67.7-30.9-67.7-68.8v-42.1c0.3-1.6 0.5-3.3 0.5-5.1 0-1.7-0.2-3.4-0.5-5.1v-214c0-37.9 30.4-68.8 67.7-68.8 37.3 0 67.7 30.9 67.7 68.8v120c0 18.3-11.9 33.7-25.9 33.7-14.1 0-25.9-15.4-25.9-33.7V604.8c0-8.9-7.1-16.1-15.9-16.1s-15.9 7.2-15.9 16.1v107.5c0 36.3 25.8 65.9 57.6 65.9s57.6-29.6 57.6-65.9v-120c0-55.7-44.6-101-99.4-101-54.8 0-99.4 45.3-99.4 101v194.9H255c-8.4 0-15.4-7.2-15.4-15.7V127.9c0-8.5 7.1-15.7 15.4-15.7h516.1c8.5 0 15.4 7 15.4 15.7v643.6z" fill="#2A86C1" p-id="8768"></path><path d="M700.1 216.6H326c-8.8 0-15.9 7.2-15.9 16.1s7.1 16.1 15.9 16.1h374.1c8.8 0 15.9-7.2 15.9-16.1s-7.1-16.1-15.9-16.1zM576.2 344H326c-8.8 0-15.9 7.2-15.9 16.1s7.1 16.1 15.9 16.1h250.2c8.8 0 15.9-7.2 15.9-16.1S585 344 576.2 344z" fill="#2A86C1" p-id="8769"></path></svg>